<?xml version="1.0" standalone="no"?>

<svg version="1.0" xmlns="http://www.w3.org/2000/svg" width="1024.000000pt" height="1024.000000pt" viewBox="0 0 1024.000000 1024.000000" preserveAspectRatio="xMidYMid meet">

<g transform="translate(0.000000,1024.000000) scale(0.100000,-0.100000)" fill="#ffffff" stroke="none">
<path d="M6667 8675 c-358 -68 -648 -366 -712 -730 -48 -277 13 -559 167 -767&#xA;126 -171 327 -303 532 -347 81 -18 202 -23 295 -12 367 45 672 316 773 687 28&#xA;105 31 363 5 468 -43 171 -121 311 -245 438 -119 123 -249 199 -422 250 -90&#xA;26 -290 32 -393 13z"></path>
<path d="M5150 8333 c-356 -35 -607 -92 -880 -200 -652 -259 -1239 -783 -1567&#xA;-1400 -158 -297 -261 -600 -318 -938 -54 -317 -55 -352 -55 -2044 l0 -1563&#xA;343 5 c236 3 381 9 467 21 526 70 995 301 1340 662 264 276 455 613 563 994&#xA;67 238 90 362 134 725 15 125 17 331 20 1943 2 991 0 1801 -4 1800 -4 0 -24&#xA;-3 -43 -5z"></path>
<path d="M7150 6278 c-299 -28 -617 -135 -845 -285 -369 -243 -597 -574 -686&#xA;-999 -26 -120 -29 -278 -32 -1792 l-2 -1012 1088 0 1087 0 0 2050 0 2050 -257&#xA;-1 c-142 -1 -301 -6 -353 -11z"></path>
</g>
</svg>