<svg width="512" height="512" viewBox="0 0 512 512" fill="none" xmlns="http://www.w3.org/2000/svg">
  <rect width="512" height="512" rx="40" fill="#111827"/>
  <rect x="48" y="48" width="416" height="416" rx="24" fill="#F5E6C8"/>
  <g clip-path="url(#clip0)">
    <rect x="48" y="48" width="52" height="52" fill="#8B5E34"/>
    <rect x="152" y="48" width="52" height="52" fill="#8B5E34"/>
    <rect x="256" y="48" width="52" height="52" fill="#8B5E34"/>
    <rect x="360" y="48" width="52" height="52" fill="#8B5E34"/>
    <rect x="100" y="100" width="52" height="52" fill="#8B5E34"/>
    <rect x="204" y="100" width="52" height="52" fill="#8B5E34"/>
    <rect x="308" y="100" width="52" height="52" fill="#8B5E34"/>
    <rect x="412" y="100" width="52" height="52" fill="#8B5E34"/>
    <rect x="48" y="152" width="52" height="52" fill="#8B5E34"/>
    <rect x="152" y="152" width="52" height="52" fill="#8B5E34"/>
    <rect x="256" y="152" width="52" height="52" fill="#8B5E34"/>
    <rect x="360" y="152" width="52" height="52" fill="#8B5E34"/>
    <rect x="100" y="204" width="52" height="52" fill="#8B5E34"/>
    <rect x="204" y="204" width="52" height="52" fill="#8B5E34"/>
    <rect x="308" y="204" width="52" height="52" fill="#8B5E34"/>
    <rect x="412" y="204" width="52" height="52" fill="#8B5E34"/>
    <rect x="48" y="256" width="52" height="52" fill="#8B5E34"/>
    <rect x="152" y="256" width="52" height="52" fill="#8B5E34"/>
    <rect x="256" y="256" width="52" height="52" fill="#8B5E34"/>
    <rect x="360" y="256" width="52" height="52" fill="#8B5E34"/>
    <rect x="100" y="308" width="52" height="52" fill="#8B5E34"/>
    <rect x="204" y="308" width="52" height="52" fill="#8B5E34"/>
    <rect x="308" y="308" width="52" height="52" fill="#8B5E34"/>
    <rect x="412" y="308" width="52" height="52" fill="#8B5E34"/>
    <rect x="48" y="360" width="52" height="52" fill="#8B5E34"/>
    <rect x="152" y="360" width="52" height="52" fill="#8B5E34"/>
    <rect x="256" y="360" width="52" height="52" fill="#8B5E34"/>
    <rect x="360" y="360" width="52" height="52" fill="#8B5E34"/>
    <rect x="100" y="412" width="52" height="52" fill="#8B5E34"/>
    <rect x="204" y="412" width="52" height="52" fill="#8B5E34"/>
    <rect x="308" y="412" width="52" height="52" fill="#8B5E34"/>
    <rect x="412" y="412" width="52" height="52" fill="#8B5E34"/>
  </g>
  <circle cx="178" cy="178" r="54" fill="#F9FAFB" fill-opacity="0.95"/>
  <path d="M168 245H188C191.314 245 194 247.686 194 251V266H162V251C162 247.686 164.686 245 168 245Z" fill="#F9FAFB"/>
  <path d="M178 122C191.255 122 202 132.745 202 146C202 154.61 197.461 162.16 190.645 166.404L198 182H188L182 172H174L168 182H158L165.355 166.404C158.539 162.16 154 154.61 154 146C154 132.745 164.745 122 178 122Z" fill="#F9FAFB"/>
  <rect x="302" y="130" width="56" height="18" rx="6" fill="#111827"/>
  <rect x="321" y="111" width="18" height="56" rx="6" fill="#111827"/>
  <path d="M306 190C306 171.222 321.222 156 340 156C358.778 156 374 171.222 374 190V204C374 222.778 358.778 238 340 238C321.222 238 306 222.778 306 204V190Z" fill="#111827"/>
  <path d="M296 245H384C390.627 245 396 250.373 396 257V266H284V257C284 250.373 289.373 245 296 245Z" fill="#111827"/>
  <defs>
    <clipPath id="clip0">
      <rect x="48" y="48" width="416" height="416" rx="24" fill="white"/>
    </clipPath>
  </defs>
</svg>
