<svg width="800" height="800" viewBox="0 0 800 800" fill="none" xmlns="http://www.w3.org/2000/svg">
  <defs>
    <linearGradient id="sky" x1="96" y1="70" x2="694" y2="726" gradientUnits="userSpaceOnUse">
      <stop stop-color="#FDE68A"/>
      <stop offset="0.38" stop-color="#F59E0B"/>
      <stop offset="1" stop-color="#92400E"/>
    </linearGradient>
    <linearGradient id="grass" x1="120" y1="250" x2="676" y2="696" gradientUnits="userSpaceOnUse">
      <stop stop-color="#65A30D"/>
      <stop offset="1" stop-color="#14532D"/>
    </linearGradient>
    <linearGradient id="castle" x1="282" y1="208" x2="530" y2="544" gradientUnits="userSpaceOnUse">
      <stop stop-color="#F8FAFC"/>
      <stop offset="1" stop-color="#CBD5E1"/>
    </linearGradient>
  </defs>
  <rect width="800" height="800" rx="64" fill="#111827"/>
  <rect x="24" y="24" width="752" height="752" rx="48" fill="url(#sky)"/>
  <path d="M78 534C175 407 279 344 396 344C520 344 620 409 722 534V738H78V534Z" fill="url(#grass)"/>
  <circle cx="628" cy="187" r="72" fill="#FFF7ED" fill-opacity="0.72"/>
  <rect x="190" y="514" width="420" height="112" rx="28" fill="#3F6212" fill-opacity="0.8"/>
  <rect x="210" y="529" width="380" height="82" rx="22" stroke="#ECFCCB" stroke-opacity="0.35" stroke-width="10"/>
  <rect x="280" y="244" width="240" height="260" rx="24" fill="url(#castle)"/>
  <rect x="246" y="278" width="68" height="190" rx="18" fill="#E2E8F0"/>
  <rect x="486" y="278" width="68" height="190" rx="18" fill="#E2E8F0"/>
  <rect x="254" y="220" width="54" height="88" rx="16" fill="#F8FAFC"/>
  <rect x="492" y="220" width="54" height="88" rx="16" fill="#F8FAFC"/>
  <rect x="358" y="328" width="84" height="176" rx="22" fill="#7C2D12"/>
  <rect x="336" y="228" width="128" height="88" rx="20" fill="#F1F5F9"/>
  <path d="M358 228L400 176L442 228H358Z" fill="#B91C1C"/>
  <path d="M254 220L281 180L308 220H254Z" fill="#DC2626"/>
  <path d="M492 220L519 180L546 220H492Z" fill="#DC2626"/>
  <path d="M136 520L210 446L282 520H136Z" fill="#B45309"/>
  <path d="M520 520L590 446L664 520H520Z" fill="#B45309"/>
  <rect x="162" y="518" width="94" height="82" rx="18" fill="#A16207"/>
  <rect x="544" y="518" width="94" height="82" rx="18" fill="#A16207"/>
  <circle cx="212" cy="558" r="18" fill="#FDE68A"/>
  <circle cx="590" cy="558" r="18" fill="#FDE68A"/>
  <path d="M132 642C226 578 307 548 396 548C489 548 576 580 668 642" stroke="#ECFCCB" stroke-opacity="0.32" stroke-width="20" stroke-linecap="round"/>
</svg>
