<svg width="512" height="512" viewBox="0 0 512 512" fill="none" xmlns="http://www.w3.org/2000/svg">
  <rect width="512" height="512" rx="48" fill="url(#bg)"/>
  <circle cx="256" cy="210" r="112" fill="#7C2D12"/>
  <circle cx="256" cy="210" r="88" stroke="#F97316" stroke-width="32"/>
  <circle cx="256" cy="210" r="12" fill="#FACC15"/>
  <g fill="#FACC15">
    <circle cx="256" cy="122" r="7"/>
    <circle cx="318" cy="148" r="7"/>
    <circle cx="344" cy="210" r="7"/>
    <circle cx="318" cy="272" r="7"/>
    <circle cx="256" cy="298" r="7"/>
    <circle cx="194" cy="272" r="7"/>
    <circle cx="168" cy="210" r="7"/>
    <circle cx="194" cy="148" r="7"/>
  </g>
  <g transform="translate(256 336)">
    <rect x="-6" y="-112" width="12" height="84" rx="4" fill="#E2E8F0"/>
    <path d="M-6 -28L0 -112L6 -28H-6Z" fill="#E2E8F0"/>
    <rect x="-10" y="-20" width="20" height="34" rx="4" fill="#111827"/>
  </g>
  <defs>
    <linearGradient id="bg" x1="64" y1="64" x2="448" y2="448" gradientUnits="userSpaceOnUse">
      <stop stop-color="#0F172A"/>
      <stop offset="1" stop-color="#1D4ED8"/>
    </linearGradient>
  </defs>
</svg>
