<svg width="512" height="512" viewBox="0 0 512 512" fill="none" xmlns="http://www.w3.org/2000/svg">
  <defs>
    <linearGradient id="bg" x1="64" y1="32" x2="448" y2="480" gradientUnits="userSpaceOnUse">
      <stop stop-color="#FFF7ED"/>
      <stop offset="0.55" stop-color="#FED7AA"/>
      <stop offset="1" stop-color="#FDBA74"/>
    </linearGradient>
    <linearGradient id="glass" x1="256" y1="108" x2="256" y2="432" gradientUnits="userSpaceOnUse">
      <stop stop-color="white" stop-opacity="0.78"/>
      <stop offset="1" stop-color="white" stop-opacity="0.26"/>
    </linearGradient>
    <radialGradient id="melon" cx="0" cy="0" r="1" gradientUnits="userSpaceOnUse" gradientTransform="translate(255 295) rotate(90) scale(122)">
      <stop stop-color="#A7F3A0"/>
      <stop offset="0.65" stop-color="#4ADE80"/>
      <stop offset="1" stop-color="#166534"/>
    </radialGradient>
  </defs>
  <rect width="512" height="512" rx="64" fill="url(#bg)"/>
  <circle cx="118" cy="108" r="62" fill="white" fill-opacity="0.34"/>
  <circle cx="396" cy="128" r="44" fill="white" fill-opacity="0.2"/>
  <path d="M154 112H358C372.359 112 384 123.641 384 138V378C384 398.987 366.987 416 346 416H166C145.013 416 128 398.987 128 378V138C128 123.641 139.641 112 154 112Z" fill="url(#glass)" stroke="#B45309" stroke-opacity="0.4" stroke-width="12"/>
  <path d="M170 152H342" stroke="#DC2626" stroke-width="8" stroke-linecap="round" stroke-dasharray="16 14"/>
  <circle cx="256" cy="296" r="108" fill="url(#melon)" stroke="#14532D" stroke-width="12"/>
  <path d="M256 196C214.026 196 180 230.026 180 272C180 313.974 214.026 348 256 348C297.974 348 332 313.974 332 272" stroke="#FCA5A5" stroke-width="20" stroke-linecap="round"/>
  <circle cx="232" cy="286" r="10" fill="#3F1D1D"/>
  <circle cx="282" cy="314" r="10" fill="#3F1D1D"/>
  <circle cx="210" cy="252" r="10" fill="#3F1D1D"/>
  <circle cx="292" cy="246" r="10" fill="#3F1D1D"/>
  <circle cx="154" cy="236" r="26" fill="#FB7185" stroke="#9F1239" stroke-width="8"/>
  <path d="M147 208C150 196 163 187 176 187" stroke="#166534" stroke-width="8" stroke-linecap="round"/>
  <circle cx="350" cy="254" r="34" fill="#A78BFA" stroke="#5B21B6" stroke-width="8"/>
  <text x="256" y="84" text-anchor="middle" fill="#7C2D12" font-family="Arial, sans-serif" font-size="42" font-weight="700">QS</text>
</svg>
